<svg width="40" height="40" fill="none" xmlns="http://www.w3.org/2000/svg"><path opacity=".4" d="M37.531 37.531c-2.263 2.263-6.251 2.564-11.05.964-4.766-1.589-10.174-5.01-15.07-9.906-4.895-4.896-8.317-10.304-9.906-15.07-1.6-4.799-1.3-8.787.964-11.05C4.732.206 8.72-.095 13.519 1.505c4.766 1.589 10.174 5.01 15.07 9.906 4.895 4.896 8.317 10.304 9.906 15.07 1.6 4.799 1.3 8.787-.964 11.05z" stroke="url(#prefix__paint0_linear)"/><path d="M37.531 2.469C35.268.206 31.28-.095 26.481 1.505c-4.766 1.589-10.174 5.01-15.07 9.906-4.895 4.896-8.317 10.304-9.906 15.07-1.6 4.799-1.3 8.787.964 11.05 2.263 2.263 6.251 2.564 11.05.964 4.766-1.589 10.174-5.01 15.07-9.906 4.895-4.896 8.317-10.304 9.906-15.07 1.6-4.799 1.3-8.787-.964-11.05z" stroke="url(#prefix__paint1_linear)"/><defs><linearGradient id="prefix__paint0_linear" x1="28.942" y1="11.058" x2="11.058" y2="28.942" gradientUnits="userSpaceOnUse"><stop stop-color="#fff" stop-opacity="0"/><stop offset="1" stop-color="#fff"/></linearGradient><linearGradient id="prefix__paint1_linear" x1="28.942" y1="28.942" x2="11.058" y2="11.058" gradientUnits="userSpaceOnUse"><stop stop-color="#fff" stop-opacity="0"/><stop offset="1" stop-color="#fff"/></linearGradient></defs></svg>
